# xmcd
#
# Track frame offsets: 
#        150
#        14242
#        27408
#        39798
#        51737
#        63532
#        75835
#        88812
#        103817
#        117148
#        130151
#        143113
#        157257
#        169304
#        181349
#        192338
#        202819
#        216044
#        230277
#        242758
#        257195
#        270190
#        283046
#        295534
#
# Disc length: 4106 seconds
#
# Revision: 1
# Processed by: cddbd v1.5.2PL0 Copyright (c) Steve Scherf et al.
# Submitted via: ExactAudioCopyFreeDBPlugin 1.0
#
DISCID=5d100818
DTITLE=Various Artist - Texas Hillbillies 1922-1937  CD C
DYEAR=2018
DGENRE=Texas Hillbilly
TTITLE0=Arthur Miles - Lonely Cowboy (pt. 1)  
TTITLE1=Arthur Miles - Lonely Cowboy (pt. 2) v
TTITLE2=Lewis Brothers - Caliope  
TTITLE3=Lewis Brothers - When Summer Comes Again 
TTITLE4=Fiddlin' Jim Pate - Prisoner Boy  
TTITLE5=Fiddlin' Jim Pate - Texas Farewell 
TTITLE6=Cartwright Brothers - On the Old Chisholm Trail  
TTITLE7=Cartwright Brothers - When the Work's All Done This Fall  
TTITLE8=Eck Robertson - Sally Johnson and Billy in the Low Ground  
TTITLE9=Eck Robertson - Done Gone 
TTITLE10=Prince Albert Hunt's Texas Ramblers - Wake up Jacob  
TTITLE11=Prince Albert Hunt's Texas Ramblers - Waltz of Roses  
TTITLE12=Red Headed Fiddlers - Ragtime Annie 
TTITLE13=Red Headed Fiddlers - Texas Waltz  
TTITLE14=East Texas Serenaders - Arizona Stomp  
TTITLE15=East Texas Serenaders - Shannon Waltz  
TTITLE16=Eck Robertson and Family - Brilliancy Medley 
TTITLE17=Eck Robertson and Family - Amarillo Waltz  
TTITLE18=East Texas Serenaders - Three in One Two-Step 
TTITLE19=East Texas Serenaders - Meadowbrook Waltz  
TTITLE20=Oscar and Doc Harper - Dallas Bound  
TTITLE21=Oscar and Doc Harper - Terrell Texas Blues  
TTITLE22=Eck Robertson and Family - Brown Kelly Waltz (pt. 1) 
TTITLE23=Eck Robertson and Family - Brown Kelly Waltz (pt. 2) 
EXTD=
EXTT0=
EXTT1=
EXTT2=
EXTT3=
EXTT4=
EXTT5=
EXTT6=
EXTT7=
EXTT8=
EXTT9=
EXTT10=
EXTT11=
EXTT12=
EXTT13=
EXTT14=
EXTT15=
EXTT16=
EXTT17=
EXTT18=
EXTT19=
EXTT20=
EXTT21=
EXTT22=
EXTT23=
PLAYORDER=
